<svg xmlns="http://www.w3.org/2000/svg" viewBox="0 0 1200 900" width="1200" height="900" focusable="false" aria-hidden="true">
  <defs>
    <linearGradient id="terrace" x1="0" y1="0" x2="0" y2="1">
      <stop offset="0" stop-color="#50605d" stop-opacity=".13"/>
      <stop offset="1" stop-color="#17231f" stop-opacity=".38"/>
    </linearGradient>
    <radialGradient id="soil" cx=".48" cy=".35" r=".72">
      <stop offset="0" stop-color="#5d5246" stop-opacity=".62"/>
      <stop offset=".72" stop-color="#3b3530" stop-opacity=".72"/>
      <stop offset="1" stop-color="#151d1b" stop-opacity=".30"/>
    </radialGradient>
    <filter id="soft" x="-20%" y="-30%" width="140%" height="160%"><feGaussianBlur stdDeviation="2.2"/></filter>
  </defs>
  <path d="M58 602 C224 548 376 558 594 548 C814 538 1004 548 1144 607 L1174 856 C952 836 776 849 594 842 C400 834 218 841 34 858 Z" fill="url(#terrace)"/>
  <g fill="#080f0e" opacity=".32" filter="url(#soft)">
    <ellipse cx="288" cy="655" rx="92" ry="25"/><ellipse cx="600" cy="629" rx="92" ry="24"/><ellipse cx="912" cy="655" rx="92" ry="25"/>
    <ellipse cx="372" cy="805" rx="110" ry="30"/><ellipse cx="600" cy="831" rx="116" ry="31"/><ellipse cx="828" cy="805" rx="110" ry="30"/>
  </g>
  <g fill="url(#soil)" stroke="#91aaa2" stroke-opacity=".30" stroke-width="3">
    <ellipse cx="288" cy="648" rx="87" ry="22"/><ellipse cx="600" cy="621" rx="87" ry="21"/><ellipse cx="912" cy="648" rx="87" ry="22"/>
    <ellipse cx="372" cy="798" rx="105" ry="27"/><ellipse cx="600" cy="824" rx="111" ry="29"/><ellipse cx="828" cy="798" rx="105" ry="27"/>
  </g>
  <g fill="none" stroke="#b6d0c6" stroke-opacity=".12" stroke-width="2">
    <path d="M210 647 Q288 628 366 647"/><path d="M522 620 Q600 602 678 620"/><path d="M834 647 Q912 628 990 647"/>
    <path d="M281 797 Q372 773 463 797"/><path d="M501 823 Q600 796 699 823"/><path d="M737 797 Q828 773 919 797"/>
  </g>
</svg>
